<?xml version="1.0" standalone="no"?>
<!DOCTYPE svg PUBLIC "-//W3C//DTD SVG 20010904//EN"
 "http://www.w3.org/TR/2001/REC-SVG-20010904/DTD/svg10.dtd">
<svg version="1.0" xmlns="http://www.w3.org/2000/svg"
 width="512.000000pt" height="512.000000pt" viewBox="0 0 512.000000 512.000000"
 preserveAspectRatio="xMidYMid meet">
<metadata>
Created by potrace 1.14, written by Peter Selinger 2001-2017
</metadata>
<g transform="translate(0.000000,512.000000) scale(0.100000,-0.100000)"
fill="#000000" stroke="none">
<path d="M1797 4374 c-1 -1 -36 -4 -78 -7 -259 -20 -529 -175 -685 -393 -61
-85 -127 -231 -155 -339 l-23 -90 -1 -1129 c-2 -1278 -7 -1186 80 -1361 106
-211 287 -351 521 -400 58 -12 270 -15 1342 -15 904 0 1285 3 1317 11 48 12
104 59 132 112 17 30 18 130 18 1697 l0 1665 -26 56 c-44 94 -133 167 -227
186 -22 4 -2209 11 -2215 7z m1685 -816 c69 -46 88 -78 88 -146 0 -58 -28
-106 -80 -136 -35 -21 -46 -21 -815 -21 -429 0 -792 3 -806 7 -45 13 -97 73
-104 121 -7 54 -1 82 27 123 23 33 72 61 118 66 14 2 368 3 787 2 671 -1 764
-3 785 -16z m-425 -642 c109 -56 117 -207 15 -277 l-36 -24 -575 -1 c-569 0
-575 0 -615 21 -57 30 -88 86 -82 147 8 85 57 136 141 148 22 3 283 5 580 4
481 -1 544 -3 572 -18z m888 -1527 l0 -424 -1207 -2 c-1180 -3 -1207 -2 -1264
17 -353 122 -406 580 -90 774 33 20 125 52 166 58 14 2 558 3 1210 2 l1185 0
0 -425z"/>
</g>
</svg>
